<svg width="18" height="20" viewBox="0 0 18 20" fill="none" xmlns="http://www.w3.org/2000/svg">
<path d="M17.9999 -8.58307e-06H8.99994V10H17.9999V-8.58307e-06ZM16.9999 9H9.99994V0.999992H16.9999V9Z" fill="#373535"/>
<path d="M8 2.99997H0V12H8V2.99997ZM7 11H1V3.99997H7V11Z" fill="#373535"/>
<path d="M8 11H0V20H8V11ZM7 19H1V12H7V19Z" fill="#373535"/>
<path d="M15.3721 11H7.00012V20H15.3721V11ZM14.3721 19H8.00012V12H14.3721V19Z" fill="#373535"/>
<path d="M12.0001 2.99956V4.99956V6.99956H15.0001V2.99956H12.0001Z" stroke="#373535" stroke-width="0.666667" stroke-miterlimit="10" stroke-linecap="round"/>
<path d="M15.0001 4.99951H12.0001" stroke="#373535" stroke-width="0.666667" stroke-miterlimit="10" stroke-linecap="round"/>
<path d="M9.00031 17.9995C10.0003 16.9995 10.0003 12.9995 10.0003 12.9995H13.0003V17.9995H12.0003" stroke="#373535" stroke-width="0.666667" stroke-miterlimit="10" stroke-linecap="round"/>
<path d="M10.0004 15.9995H13.0004" stroke="#373535" stroke-width="0.666667" stroke-miterlimit="10" stroke-linecap="round"/>
<path d="M10.0004 14.4995H13.0004" stroke="#373535" stroke-width="0.666667" stroke-miterlimit="10" stroke-linecap="round"/>
</svg>
