<svg width="18" height="20" viewBox="0 0 18 20" fill="none" xmlns="http://www.w3.org/2000/svg">
<path d="M8.325 0.22563L0.45 6.14104C0.1665 6.354 0 6.68751 0 7.04244V18.8733C0 19.4952 0.504 20 1.125 20H4.5C5.121 20 5.625 19.4952 5.625 18.8733V12.1128C5.625 11.4908 6.129 10.986 6.75 10.986H11.25C11.871 10.986 12.375 11.4908 12.375 12.1128V18.8733C12.375 19.4952 12.879 20 13.5 20H16.875C17.496 20 18 19.4952 18 18.8733V7.04244C18 6.68751 17.8335 6.354 17.55 6.14104L9.675 0.22563C9.2745 -0.0752106 8.7255 -0.0752106 8.325 0.22563Z" fill="#373535"/>
</svg>
