<svg width="20" height="20" viewBox="0 0 20 20" fill="none" xmlns="http://www.w3.org/2000/svg">
<path d="M7.68307 3.05231C5.13025 3.05231 3.05231 5.12923 3.05231 7.68308C3.05231 10.2359 5.13025 12.3138 7.68307 12.3138C10.2359 12.3138 12.3128 10.2359 12.3128 7.68308C12.3128 5.12923 10.2359 3.05231 7.68307 3.05231ZM7.68307 13.3138C4.57846 13.3138 2.05231 10.7877 2.05231 7.68308C2.05231 4.57846 4.57846 2.05231 7.68307 2.05231C10.7877 2.05231 13.3128 4.57846 13.3128 7.68308C13.3128 10.7877 10.7877 13.3138 7.68307 13.3138ZM12.0287 12.7672L18.1292 18.8677C18.3015 19.039 18.6031 19.039 18.7764 18.8677L18.8646 18.7785C18.9528 18.6903 19 18.5744 19 18.4523C19 18.3313 18.9528 18.2174 18.8667 18.1313L12.7662 12.0297L13.0267 11.6831C13.9026 10.5149 14.3651 9.13128 14.3651 7.68308C14.3651 3.99897 11.3672 1 7.68307 1C3.99897 1 1 3.99897 1 7.68308C1 11.3682 3.99897 14.3662 7.68307 14.3662C9.13231 14.3662 10.5149 13.9036 11.682 13.0277L12.0287 12.7672ZM18.4523 20C18.079 20 17.7056 19.8585 17.4215 19.5744L11.9262 14.079C10.6626 14.9231 9.20513 15.3662 7.68307 15.3662C3.44718 15.3662 0 11.92 0 7.68308C0 3.44718 3.44718 4.76837e-07 7.68307 4.76837e-07C11.919 4.76837e-07 15.3651 3.44718 15.3651 7.68308C15.3651 9.20513 14.922 10.6626 14.079 11.9272L19.5733 17.4236C19.8482 17.6974 20 18.0626 20 18.4523C20.001 18.8421 19.8492 19.2082 19.5733 19.4841L19.4851 19.5723C19.2 19.8574 18.8256 20 18.4523 20Z" fill="#373535"/>
</svg>
