<svg width="20" height="20" viewBox="0 0 20 20" fill="none" xmlns="http://www.w3.org/2000/svg">
<path d="M2.16003 7.56019C2.16003 4.57712 4.57806 2.16006 7.56009 2.16006C10.5431 2.16006 12.9612 4.57712 12.9612 7.56019C12.9612 10.5423 10.5431 12.9603 7.56009 12.9603C4.57806 12.9603 2.16003 10.5423 2.16003 7.56019ZM19.7052 18.1845L13.6062 12.0853C14.5532 10.8233 15.1212 9.26023 15.1212 7.56019C15.1212 3.38409 11.7361 4.76837e-07 7.56009 4.76837e-07C3.38504 4.76837e-07 0 3.38409 0 7.56019C0 11.7353 3.38504 15.1204 7.56009 15.1204C9.26012 15.1204 10.8231 14.5534 12.0862 13.6063L18.1842 19.7045C18.5782 20.0985 19.2162 20.0985 19.6102 19.7045L19.7052 19.6095C20.0983 19.2165 20.0983 18.5775 19.7052 18.1845Z" fill="#717171"/>
</svg>
