<svg width="20" height="20" viewBox="0 0 20 20" fill="none" xmlns="http://www.w3.org/2000/svg">
<path d="M10 0C7.23889 0 5 2.23889 5 5C5 7.76111 7.23889 10 10 10C12.7611 10 15 7.76111 15 5C15 2.23889 12.7611 0 10 0ZM10 1.11111C12.1444 1.11111 13.8889 2.85556 13.8889 5C13.8889 7.14444 12.1444 8.88889 10 8.88889C7.85556 8.88889 6.11111 7.14444 6.11111 5C6.11111 2.85556 7.85556 1.11111 10 1.11111Z" fill="#373535"/>
<path d="M10 11C4.47667 11 0 15.0297 0 20H20C20 15.0297 15.5233 11 10 11ZM10 12.125C14.47 12.125 18.18 15.0635 18.7989 18.875H1.20111C1.82 15.0635 5.53 12.125 10 12.125Z" fill="#373535"/>
</svg>
