<svg width="20" height="18" viewBox="0 0 20 18" fill="none" xmlns="http://www.w3.org/2000/svg">
<path d="M10 6.99994C8.343 6.99994 7 8.34294 7 9.99994C7 11.6569 8.343 12.9999 10 12.9999C11.657 12.9999 13 11.6569 13 9.99994C13 8.34294 11.657 6.99994 10 6.99994Z" fill="#ADB5BD"/>
<path d="M16.5 7.5C15.948 7.5 15.5 7.052 15.5 6.5C15.5 5.948 15.948 5.5 16.5 5.5C17.052 5.5 17.5 5.948 17.5 6.5C17.5 7.052 17.052 7.5 16.5 7.5ZM10 15C7.239 15 5 12.761 5 10C5 7.239 7.239 5 10 5C12.761 5 15 7.239 15 10C15 12.761 12.761 15 10 15ZM18 3H15L13.297 0.445C13.111 0.167 12.799 0 12.465 0H7.535C7.201 0 6.889 0.167 6.703 0.445L5 3H2C0.895 3 0 3.895 0 5V16C0 17.105 0.895 18 2 18H18C19.105 18 20 17.105 20 16V5C20 3.895 19.105 3 18 3Z" fill="#ADB5BD"/>
</svg>
