<svg width="20" height="20" viewBox="0 0 20 20" fill="none" xmlns="http://www.w3.org/2000/svg">
<path d="M2.16005 7.56019C2.16005 4.57711 4.57811 2.16005 7.56019 2.16005C10.5433 2.16005 12.9613 4.57711 12.9613 7.56019C12.9613 10.5423 10.5433 12.9603 7.56019 12.9603C4.57811 12.9603 2.16005 10.5423 2.16005 7.56019ZM19.7055 18.1845L13.6063 12.0853C14.5534 10.8233 15.1214 9.26023 15.1214 7.56019C15.1214 3.38408 11.7363 -9.41164e-07 7.56019 -9.41164e-07C3.38508 -9.41164e-07 0 3.38408 0 7.56019C0 11.7353 3.38508 15.1204 7.56019 15.1204C9.26023 15.1204 10.8233 14.5534 12.0863 13.6063L18.1845 19.7045C18.5785 20.0985 19.2165 20.0985 19.6105 19.7045L19.7055 19.6095C20.0985 19.2165 20.0985 18.5775 19.7055 18.1845Z" fill="#ADB5BD"/>
</svg>
